<svg width="111" height="30" viewBox="0 0 111 30" fill="none" xmlns="http://www.w3.org/2000/svg">
<g clip-path="url(#clip0_1_333)">
<rect y="-2.47955e-05" width="30" height="30" rx="4" fill="#335EEA"/>
<path d="M36.837 21.8817C36.837 20.3 37.2014 18.881 37.9303 17.6249C38.6747 16.3688 39.6749 15.3918 40.931 14.6939C42.2026 13.9806 43.5906 13.6239 45.0948 13.6239C46.8162 13.6239 48.3437 14.0504 49.6773 14.9033C51.0265 15.7407 52.0035 16.9348 52.6083 18.4856H49.4215C49.0028 17.6326 48.4212 16.9968 47.6768 16.5781C46.9325 16.1594 46.0718 15.9501 45.0948 15.9501C44.0248 15.9501 43.0711 16.1904 42.2337 16.6712C41.3962 17.1519 40.7372 17.842 40.2564 18.7414C39.7912 19.6409 39.5586 20.6877 39.5586 21.8817C39.5586 23.0758 39.7912 24.1226 40.2564 25.022C40.7372 25.9215 41.3962 26.6193 42.2337 27.1156C43.0711 27.5963 44.0248 27.8367 45.0948 27.8367C46.0718 27.8367 46.9325 27.6273 47.6768 27.2086C48.4212 26.7899 49.0028 26.1541 49.4215 25.3012H52.6083C52.0035 26.8519 51.0265 28.046 49.6773 28.8834C48.3437 29.7209 46.8162 30.1396 45.0948 30.1396C43.5751 30.1396 42.1871 29.7906 40.931 29.0928C39.6749 28.3794 38.6747 27.3947 37.9303 26.1386C37.2014 24.8825 36.837 23.4635 36.837 21.8817ZM63.0629 30L59.341 23.5333H57.3173V30H54.6655V13.8333H60.2482C61.4888 13.8333 62.5356 14.0504 63.3885 14.4846C64.257 14.9188 64.9005 15.5003 65.3192 16.2292C65.7534 16.9581 65.9706 17.7722 65.9706 18.6717C65.9706 19.7262 65.6604 20.6877 65.0401 21.5561C64.4353 22.409 63.4971 22.9905 62.2255 23.3007L66.2264 30H63.0629ZM57.3173 21.4165H60.2482C61.2407 21.4165 61.9851 21.1684 62.4813 20.6721C62.9931 20.1759 63.249 19.5091 63.249 18.6717C63.249 17.8342 63.0008 17.1829 62.5046 16.7177C62.0083 16.237 61.2562 15.9966 60.2482 15.9966H57.3173V21.4165ZM85.3436 13.8333V30H82.6917V18.9275L77.7603 30H75.9227L70.968 18.9275V30H68.3161V13.8333H71.1773L76.8531 26.5108L82.5057 13.8333H85.3436ZM88.8522 30.1628C88.3715 30.1628 87.9683 30 87.6426 29.6743C87.317 29.3487 87.1541 28.9455 87.1541 28.4647C87.1541 27.984 87.317 27.5808 87.6426 27.2551C87.9683 26.9295 88.3715 26.7667 88.8522 26.7667C89.3175 26.7667 89.7129 26.9295 90.0386 27.2551C90.3642 27.5808 90.527 27.984 90.527 28.4647C90.527 28.9455 90.3642 29.3487 90.0386 29.6743C89.7129 30 89.3175 30.1628 88.8522 30.1628ZM93.6955 15.4848C93.2148 15.4848 92.8116 15.322 92.4859 14.9963C92.1603 14.6707 91.9974 14.2675 91.9974 13.7867C91.9974 13.306 92.1603 12.9028 92.4859 12.5771C92.8116 12.2515 93.2148 12.0887 93.6955 12.0887C94.1607 12.0887 94.5562 12.2515 94.8819 12.5771C95.2075 12.9028 95.3703 13.306 95.3703 13.7867C95.3703 14.2675 95.2075 14.6707 94.8819 14.9963C94.5562 15.322 94.1607 15.4848 93.6955 15.4848ZM94.9982 17.1829V30H92.3463V17.1829H94.9982ZM102.992 30.2094C101.783 30.2094 100.69 29.938 99.7126 29.3952C98.7356 28.8369 97.968 28.0615 97.4097 27.0691C96.8514 26.0611 96.5723 24.898 96.5723 23.5798C96.5723 22.2772 96.8592 21.1219 97.433 20.1139C98.0068 19.1059 98.7899 18.3305 99.7824 17.7877C100.775 17.245 101.884 16.9736 103.109 16.9736C104.334 16.9736 105.443 17.245 106.435 17.7877C107.428 18.3305 108.211 19.1059 108.785 20.1139C109.358 21.1219 109.645 22.2772 109.645 23.5798C109.645 24.8825 109.351 26.0378 108.761 27.0458C108.172 28.0538 107.366 28.8369 106.342 29.3952C105.334 29.938 104.218 30.2094 102.992 30.2094ZM102.992 27.9065C103.675 27.9065 104.311 27.7436 104.9 27.418C105.505 27.0923 105.993 26.6038 106.365 25.9525C106.738 25.3012 106.924 24.5103 106.924 23.5798C106.924 22.6494 106.745 21.8662 106.389 21.2304C106.032 20.5791 105.559 20.0906 104.97 19.7649C104.38 19.4393 103.745 19.2765 103.062 19.2765C102.38 19.2765 101.744 19.4393 101.155 19.7649C100.581 20.0906 100.124 20.5791 99.7824 21.2304C99.4412 21.8662 99.2706 22.6494 99.2706 23.5798C99.2706 24.96 99.6196 26.03 100.317 26.7899C101.031 27.5343 101.922 27.9065 102.992 27.9065Z" fill="#335EEA"/>
<path d="M37.415 4.06012L36.7463 3.88845L37.0761 0.613128H40.4508V1.38565H37.7854L37.5866 3.17465C37.7071 3.10538 37.8592 3.04063 38.0429 2.98039C38.2297 2.92016 38.4435 2.89004 38.6844 2.89004C38.9886 2.89004 39.2612 2.94275 39.5021 3.04816C39.7431 3.15056 39.9479 3.29814 40.1165 3.49089C40.2882 3.68365 40.4192 3.91555 40.5096 4.18661C40.5999 4.45767 40.6451 4.76036 40.6451 5.09467C40.6451 5.41091 40.6014 5.70154 40.5141 5.96658C40.4298 6.23162 40.3018 6.46353 40.1301 6.6623C39.9584 6.85807 39.7416 7.01016 39.4795 7.11859C39.2205 7.22701 38.9148 7.28123 38.5625 7.28123C38.2974 7.28123 38.0459 7.24508 37.808 7.1728C37.5731 7.09751 37.3623 6.98456 37.1755 6.83398C36.9918 6.68037 36.8412 6.49063 36.7238 6.26475C36.6093 6.03585 36.537 5.7678 36.5069 5.4606H37.302C37.3382 5.70757 37.4104 5.91538 37.5189 6.08404C37.6273 6.2527 37.7688 6.3807 37.9435 6.46804C38.1212 6.55237 38.3275 6.59454 38.5625 6.59454C38.7612 6.59454 38.9374 6.5599 39.091 6.49063C39.2446 6.42136 39.3741 6.32197 39.4795 6.19246C39.585 6.06296 39.6648 5.90634 39.719 5.72263C39.7762 5.53891 39.8048 5.3326 39.8048 5.1037C39.8048 4.89589 39.7762 4.70314 39.719 4.52544C39.6618 4.34774 39.5759 4.19264 39.4615 4.06012C39.35 3.9276 39.213 3.8252 39.0504 3.75292C38.8877 3.67762 38.701 3.63997 38.4902 3.63997C38.2101 3.63997 37.9977 3.67762 37.8532 3.75292C37.7116 3.82821 37.5656 3.93061 37.415 4.06012ZM45.6914 3.37795V4.38087C45.6914 4.91998 45.6432 5.37476 45.5468 5.74521C45.4504 6.11566 45.3119 6.41383 45.1312 6.63972C44.9505 6.8656 44.7321 7.02974 44.4761 7.13214C44.2231 7.23153 43.937 7.28123 43.6177 7.28123C43.3648 7.28123 43.1313 7.2496 42.9175 7.18635C42.7037 7.12311 42.5109 7.02221 42.3392 6.88367C42.1706 6.74212 42.026 6.5584 41.9055 6.33251C41.7851 6.10663 41.6932 5.83256 41.63 5.51029C41.5667 5.18803 41.5351 4.81156 41.5351 4.38087V3.37795C41.5351 2.83884 41.5833 2.38707 41.6797 2.02264C41.779 1.65822 41.9191 1.36607 42.0998 1.14621C42.2805 0.923342 42.4974 0.763717 42.7503 0.66734C43.0063 0.570963 43.2925 0.522774 43.6087 0.522774C43.8647 0.522774 44.0996 0.554398 44.3135 0.617646C44.5303 0.677881 44.7231 0.775765 44.8917 0.911295C45.0604 1.04381 45.2034 1.22151 45.3209 1.44438C45.4414 1.66424 45.5332 1.9338 45.5965 2.25305C45.6597 2.5723 45.6914 2.94726 45.6914 3.37795ZM44.8511 4.5164V3.2379C44.8511 2.94275 44.833 2.68373 44.7969 2.46086C44.7637 2.23498 44.714 2.04222 44.6478 1.8826C44.5815 1.72297 44.4972 1.59346 44.3948 1.49408C44.2954 1.39469 44.1794 1.3224 44.0469 1.27723C43.9174 1.22904 43.7713 1.20494 43.6087 1.20494C43.4099 1.20494 43.2337 1.24259 43.0801 1.31789C42.9265 1.39017 42.797 1.50612 42.6916 1.66575C42.5892 1.82537 42.5109 2.03469 42.4567 2.29371C42.4025 2.55272 42.3754 2.86745 42.3754 3.2379V4.5164C42.3754 4.81156 42.3919 5.07208 42.4251 5.29796C42.4612 5.52385 42.5139 5.71961 42.5832 5.88526C42.6525 6.0479 42.7368 6.18192 42.8362 6.28734C42.9356 6.39275 43.05 6.47105 43.1795 6.52226C43.312 6.57044 43.4581 6.59454 43.6177 6.59454C43.8225 6.59454 44.0017 6.55539 44.1553 6.47708C44.3089 6.39877 44.4369 6.27679 44.5393 6.11115C44.6448 5.94249 44.7231 5.72714 44.7743 5.46512C44.8255 5.20008 44.8511 4.88384 44.8511 4.5164ZM50.8957 3.37795V4.38087C50.8957 4.91998 50.8475 5.37476 50.7512 5.74521C50.6548 6.11566 50.5162 6.41383 50.3355 6.63972C50.1548 6.8656 49.9365 7.02974 49.6805 7.13214C49.4275 7.23153 49.1414 7.28123 48.8221 7.28123C48.5691 7.28123 48.3357 7.2496 48.1219 7.18635C47.908 7.12311 47.7153 7.02221 47.5436 6.88367C47.3749 6.74212 47.2304 6.5584 47.1099 6.33251C46.9894 6.10663 46.8976 5.83256 46.8343 5.51029C46.7711 5.18803 46.7395 4.81156 46.7395 4.38087V3.37795C46.7395 2.83884 46.7876 2.38707 46.884 2.02264C46.9834 1.65822 47.1235 1.36607 47.3042 1.14621C47.4849 0.923342 47.7017 0.763717 47.9547 0.66734C48.2107 0.570963 48.4968 0.522774 48.8131 0.522774C49.0691 0.522774 49.304 0.554398 49.5178 0.617646C49.7347 0.677881 49.9274 0.775765 50.0961 0.911295C50.2648 1.04381 50.4078 1.22151 50.5253 1.44438C50.6457 1.66424 50.7376 1.9338 50.8009 2.25305C50.8641 2.5723 50.8957 2.94726 50.8957 3.37795ZM50.0554 4.5164V3.2379C50.0554 2.94275 50.0374 2.68373 50.0012 2.46086C49.9681 2.23498 49.9184 2.04222 49.8521 1.8826C49.7859 1.72297 49.7016 1.59346 49.5992 1.49408C49.4998 1.39469 49.3838 1.3224 49.2513 1.27723C49.1218 1.22904 48.9757 1.20494 48.8131 1.20494C48.6143 1.20494 48.4381 1.24259 48.2845 1.31789C48.1309 1.39017 48.0014 1.50612 47.896 1.66575C47.7936 1.82537 47.7153 2.03469 47.6611 2.29371C47.6069 2.55272 47.5797 2.86745 47.5797 3.2379V4.5164C47.5797 4.81156 47.5963 5.07208 47.6294 5.29796C47.6656 5.52385 47.7183 5.71961 47.7876 5.88526C47.8568 6.0479 47.9412 6.18192 48.0406 6.28734C48.1399 6.39275 48.2544 6.47105 48.3839 6.52226C48.5164 6.57044 48.6625 6.59454 48.8221 6.59454C49.0269 6.59454 49.2061 6.55539 49.3597 6.47708C49.5133 6.39877 49.6413 6.27679 49.7437 6.11115C49.8491 5.94249 49.9274 5.72714 49.9786 5.46512C50.0298 5.20008 50.0554 4.88384 50.0554 4.5164ZM54.9436 6.3551V3.83875C54.9436 3.646 54.9044 3.47884 54.8261 3.33729C54.7508 3.19272 54.6364 3.08129 54.4828 3.00298C54.3292 2.92468 54.1394 2.88552 53.9135 2.88552C53.7027 2.88552 53.5175 2.92166 53.3579 2.99395C53.2013 3.06623 53.0778 3.1611 52.9874 3.27856C52.9001 3.39602 52.8564 3.52251 52.8564 3.65805H52.0206C52.0206 3.48336 52.0658 3.31018 52.1562 3.13851C52.2465 2.96684 52.376 2.81173 52.5447 2.67319C52.7164 2.53164 52.9212 2.4202 53.1591 2.33888C53.4 2.25455 53.6681 2.21239 53.9632 2.21239C54.3186 2.21239 54.6318 2.27262 54.9029 2.39309C55.177 2.51357 55.3908 2.69578 55.5444 2.93973C55.701 3.18068 55.7793 3.48336 55.7793 3.84779V6.1247C55.7793 6.28734 55.7929 6.46051 55.82 6.64423C55.8501 6.82795 55.8938 6.98607 55.951 7.11859V7.19087H55.0791C55.0369 7.09449 55.0038 6.96649 54.9797 6.80687C54.9556 6.64423 54.9436 6.49364 54.9436 6.3551ZM55.0881 4.22727L55.0972 4.81457H54.2524C54.0144 4.81457 53.8021 4.83415 53.6154 4.8733C53.4286 4.90944 53.272 4.96516 53.1455 5.04046C53.019 5.11575 52.9227 5.21062 52.8564 5.32507C52.7901 5.43651 52.757 5.56752 52.757 5.71811C52.757 5.87171 52.7916 6.01176 52.8609 6.13825C52.9302 6.26475 53.0341 6.36564 53.1726 6.44094C53.3142 6.51322 53.4874 6.54936 53.6922 6.54936C53.9482 6.54936 54.1741 6.49515 54.3698 6.38672C54.5656 6.2783 54.7207 6.14578 54.8351 5.98917C54.9526 5.83256 55.0159 5.68046 55.0249 5.53288L55.3818 5.93496C55.3607 6.06145 55.3035 6.2015 55.2101 6.3551C55.1167 6.5087 54.9918 6.65628 54.8351 6.79783C54.6815 6.93638 54.4978 7.05233 54.284 7.1457C54.0732 7.23605 53.8352 7.28123 53.5702 7.28123C53.2389 7.28123 52.9483 7.21647 52.6983 7.08697C52.4513 6.95746 52.2586 6.78428 52.12 6.56743C51.9845 6.34757 51.9167 6.10211 51.9167 5.83105C51.9167 5.56902 51.9679 5.33862 52.0703 5.13984C52.1727 4.93806 52.3203 4.7709 52.5131 4.63838C52.7058 4.50285 52.9377 4.40045 53.2088 4.33118C53.4798 4.26191 53.7825 4.22727 54.1168 4.22727H55.0881ZM57.9298 3.24242V9.07023H57.0895V2.30274H57.8575L57.9298 3.24242ZM61.2231 4.70615V4.80102C61.2231 5.15641 61.181 5.4862 61.0967 5.79039C61.0123 6.09157 60.8888 6.3536 60.7262 6.57647C60.5666 6.79934 60.3693 6.97252 60.1344 7.096C59.8995 7.21948 59.6299 7.28123 59.3257 7.28123C59.0155 7.28123 58.7414 7.23003 58.5035 7.12762C58.2656 7.02522 58.0638 6.87614 57.8981 6.68037C57.7325 6.48461 57.6 6.24969 57.5006 5.97562C57.4042 5.70154 57.3379 5.39283 57.3018 5.04949V4.54351C57.3379 4.1821 57.4057 3.85833 57.5051 3.57221C57.6045 3.28609 57.7355 3.04213 57.8981 2.84034C58.0638 2.63554 58.2641 2.48044 58.499 2.37502C58.7339 2.2666 59.005 2.21239 59.3122 2.21239C59.6194 2.21239 59.8919 2.27262 60.1299 2.39309C60.3678 2.51055 60.5681 2.67921 60.7307 2.89907C60.8934 3.11894 61.0153 3.38247 61.0967 3.68967C61.181 3.99386 61.2231 4.33269 61.2231 4.70615ZM60.3829 4.80102V4.70615C60.3829 4.46219 60.3573 4.2333 60.3061 4.01946C60.2549 3.80261 60.175 3.61287 60.0666 3.45023C59.9612 3.28458 59.8257 3.15508 59.66 3.06171C59.4944 2.96533 59.2971 2.91715 59.0682 2.91715C58.8574 2.91715 58.6737 2.95329 58.5171 3.02557C58.3635 3.09785 58.2324 3.19574 58.124 3.31922C58.0156 3.43969 57.9267 3.57823 57.8575 3.73485C57.7912 3.88845 57.7415 4.04807 57.7084 4.21372V5.3838C57.7686 5.59462 57.853 5.7934 57.9614 5.98013C58.0698 6.16385 58.2144 6.31294 58.3951 6.42738C58.5758 6.53882 58.8032 6.59454 59.0772 6.59454C59.3031 6.59454 59.4974 6.54786 59.66 6.45449C59.8257 6.35811 59.9612 6.2271 60.0666 6.06145C60.175 5.8958 60.2549 5.70606 60.3061 5.49222C60.3573 5.27538 60.3829 5.04497 60.3829 4.80102ZM63.1251 3.24242V9.07023H62.2848V2.30274H63.0528L63.1251 3.24242ZM66.4185 4.70615V4.80102C66.4185 5.15641 66.3763 5.4862 66.292 5.79039C66.2077 6.09157 66.0842 6.3536 65.9215 6.57647C65.7619 6.79934 65.5646 6.97252 65.3297 7.096C65.0948 7.21948 64.8252 7.28123 64.5211 7.28123C64.2108 7.28123 63.9368 7.23003 63.6988 7.12762C63.4609 7.02522 63.2591 6.87614 63.0935 6.68037C62.9278 6.48461 62.7953 6.24969 62.6959 5.97562C62.5995 5.70154 62.5333 5.39283 62.4971 5.04949V4.54351C62.5333 4.1821 62.601 3.85833 62.7004 3.57221C62.7998 3.28609 62.9308 3.04213 63.0935 2.84034C63.2591 2.63554 63.4594 2.48044 63.6943 2.37502C63.9292 2.2666 64.2003 2.21239 64.5075 2.21239C64.8147 2.21239 65.0873 2.27262 65.3252 2.39309C65.5631 2.51055 65.7634 2.67921 65.9261 2.89907C66.0887 3.11894 66.2107 3.38247 66.292 3.68967C66.3763 3.99386 66.4185 4.33269 66.4185 4.70615ZM65.5782 4.80102V4.70615C65.5782 4.46219 65.5526 4.2333 65.5014 4.01946C65.4502 3.80261 65.3704 3.61287 65.262 3.45023C65.1565 3.28458 65.021 3.15508 64.8554 3.06171C64.6897 2.96533 64.4924 2.91715 64.2635 2.91715C64.0527 2.91715 63.869 2.95329 63.7124 3.02557C63.5588 3.09785 63.4278 3.19574 63.3193 3.31922C63.2109 3.43969 63.1221 3.57823 63.0528 3.73485C62.9865 3.88845 62.9369 4.04807 62.9037 4.21372V5.3838C62.964 5.59462 63.0483 5.7934 63.1567 5.98013C63.2651 6.16385 63.4097 6.31294 63.5904 6.42738C63.7711 6.53882 63.9985 6.59454 64.2726 6.59454C64.4985 6.59454 64.6927 6.54786 64.8554 6.45449C65.021 6.35811 65.1565 6.2271 65.262 6.06145C65.3704 5.8958 65.4502 5.70606 65.5014 5.49222C65.5526 5.27538 65.5782 5.04497 65.5782 4.80102ZM70.3308 5.8943C70.3308 5.77383 70.3037 5.66239 70.2495 5.55999C70.1983 5.45458 70.0914 5.35971 69.9287 5.27538C69.7691 5.18803 69.5282 5.11274 69.2059 5.04949C68.9348 4.99227 68.6894 4.9245 68.4695 4.8462C68.2527 4.76789 68.0674 4.67302 67.9138 4.56158C67.7632 4.45015 67.6473 4.31913 67.566 4.16854C67.4847 4.01795 67.444 3.84176 67.444 3.63997C67.444 3.44722 67.4862 3.26501 67.5705 3.09334C67.6578 2.92166 67.7798 2.76957 67.9364 2.63705C68.096 2.50453 68.2873 2.40062 68.5102 2.32533C68.733 2.25003 68.9815 2.21239 69.2556 2.21239C69.6471 2.21239 69.9814 2.28166 70.2585 2.4202C70.5356 2.55874 70.7479 2.74397 70.8955 2.97588C71.0431 3.20477 71.1169 3.45927 71.1169 3.73936H70.2811C70.2811 3.60383 70.2404 3.47282 70.1591 3.34633C70.0808 3.21682 69.9649 3.1099 69.8113 3.02557C69.6607 2.94124 69.4754 2.89907 69.2556 2.89907C69.0237 2.89907 68.8354 2.93522 68.6909 3.0075C68.5493 3.07677 68.4454 3.16562 68.3792 3.27404C68.3159 3.38247 68.2843 3.49691 68.2843 3.61739C68.2843 3.70774 68.2993 3.78906 68.3295 3.86134C68.3626 3.93061 68.4198 3.99537 68.5011 4.0556C68.5824 4.11283 68.6969 4.16704 68.8445 4.21824C68.9921 4.26944 69.1803 4.32064 69.4092 4.37184C69.8098 4.46219 70.1395 4.57062 70.3986 4.69711C70.6576 4.82361 70.8503 4.97871 70.9768 5.16243C71.1033 5.34615 71.1666 5.56902 71.1666 5.83105C71.1666 6.04489 71.1214 6.24065 71.031 6.41835C70.9437 6.59604 70.8157 6.74965 70.647 6.87915C70.4814 7.00565 70.2826 7.10504 70.0507 7.17732C69.8218 7.24659 69.5643 7.28123 69.2782 7.28123C68.8475 7.28123 68.4831 7.20443 68.1849 7.05082C67.8867 6.89722 67.6608 6.69844 67.5072 6.45449C67.3536 6.21054 67.2768 5.95303 67.2768 5.68197H68.1171C68.1292 5.91086 68.1954 6.09308 68.3159 6.22861C68.4364 6.36112 68.584 6.456 68.7586 6.51322C68.9333 6.56743 69.1065 6.59454 69.2782 6.59454C69.5071 6.59454 69.6983 6.56442 69.8519 6.50418C70.0085 6.44395 70.1275 6.36112 70.2088 6.25571C70.2901 6.1503 70.3308 6.02983 70.3308 5.8943Z" fill="#868686"/>
<path fill-rule="evenodd" clip-rule="evenodd" d="M10.0975 20.6885C7.02722 20.6885 4.53822 18.1416 4.53822 14.9999C4.53822 11.8961 7.25997 9.31125 10.3721 9.31125C12.5226 9.31125 14.2823 10.5704 15.1229 12.441H13.6141C12.912 11.3526 11.7501 10.6665 10.3726 10.6665C7.97041 10.6665 5.86242 12.6685 5.86242 15.0007C5.86242 17.3944 7.7588 19.3348 10.0981 19.3348C11.6223 19.3348 12.9584 18.5111 13.7045 17.2749C13.7961 17.551 13.8974 17.8431 13.9915 18.085C14.0866 18.3292 14.1879 18.5571 14.2787 18.749C13.2598 19.9379 11.7643 20.6885 10.0975 20.6885ZM14.3112 14.5118C14.3261 14.6718 14.3338 14.8349 14.3338 15.0007L14.3338 15.0071C14.3376 15.1193 14.3462 15.2881 14.365 15.4877H10.1586C9.8296 15.4877 9.56292 15.7544 9.56292 16.0833C9.56292 16.4123 9.8296 16.679 10.1586 16.679H19.7192C20.0482 16.679 20.3148 16.4123 20.3148 16.0833C20.3148 15.7544 20.0482 15.4877 19.7192 15.4877H15.6934C15.6759 15.3279 15.667 15.1655 15.667 15.0009C15.667 14.9715 15.6673 14.9422 15.6678 14.913L15.6639 14.9171C15.6639 14.9171 15.6645 14.7621 15.6428 14.5118H19.7192C20.0481 14.5118 20.3148 14.2451 20.3148 13.9161C20.3148 13.5872 20.0481 13.3205 19.7192 13.3205H10.1585C9.82958 13.3205 9.5629 13.5872 9.5629 13.9161C9.5629 14.2451 9.82958 14.5118 10.1585 14.5118H14.3112ZM15.2453 18.1079C15.1704 17.9788 15.0627 17.7858 14.951 17.5595H16.4834C17.254 18.636 18.4986 19.3351 19.9026 19.3351C22.2419 19.3351 24.1383 17.3946 24.1383 15.0009C24.1383 12.6072 22.2419 10.6667 19.9026 10.6667C18.4446 10.6667 17.1586 11.4206 16.3966 12.5681C16.37 12.4596 16.3404 12.351 16.3076 12.2453C16.1742 11.8152 15.9784 11.4019 15.8334 11.1239C16.8483 10.0089 18.2958 9.31147 19.9024 9.31147C22.9727 9.31147 25.4617 11.8583 25.4617 15.0001C25.4617 18.1418 22.9727 20.6887 19.9024 20.6887C17.9529 20.6887 16.2377 19.6619 15.2453 18.1079Z" fill="white"/>
<path d="M15.1229 12.441V12.641H15.432L15.3053 12.359L15.1229 12.441ZM13.6141 12.441L13.4461 12.5494L13.5052 12.641H13.6141V12.441ZM13.7045 17.2749L13.8944 17.2119L13.7577 16.7997L13.5333 17.1715L13.7045 17.2749ZM13.9915 18.085L13.8051 18.1575L13.9915 18.085ZM14.2787 18.749L14.4306 18.8792L14.515 18.7807L14.4595 18.6635L14.2787 18.749ZM14.3338 15.0007L14.5338 15.0008V15.0007H14.3338ZM14.3112 14.5118L14.5103 14.4932L14.4934 14.3118H14.3112V14.5118ZM14.3338 15.0071L14.1336 15.007L14.1339 15.014L14.3338 15.0071ZM14.365 15.4877V15.6877H14.5848L14.5642 15.4689L14.365 15.4877ZM15.6934 15.4877L15.4946 15.5094L15.514 15.6877H15.6934V15.4877ZM15.6678 14.913L15.8678 14.9169L15.8778 14.3996L15.5225 14.7756L15.6678 14.913ZM15.6639 14.9171L15.4639 14.9164L15.462 15.422L15.8093 15.0545L15.6639 14.9171ZM15.6428 14.5118V14.3118H15.4247L15.4435 14.5291L15.6428 14.5118ZM14.951 17.5595V17.3595H14.6293L14.7717 17.648L14.951 17.5595ZM15.2453 18.1079L15.0722 18.2085L15.0768 18.2156L15.2453 18.1079ZM16.4834 17.5595L16.646 17.443L16.5862 17.3595H16.4834V17.5595ZM16.3966 12.5681L16.2024 12.6158L16.3111 13.0586L16.5633 12.6788L16.3966 12.5681ZM16.3076 12.2453L16.1166 12.3046L16.3076 12.2453ZM15.8334 11.1239L15.6855 10.9893L15.5915 11.0926L15.656 11.2164L15.8334 11.1239ZM4.33822 14.9999C4.33822 18.2477 6.91245 20.8885 10.0975 20.8885V20.4885C7.14198 20.4885 4.73822 18.0355 4.73822 14.9999H4.33822ZM10.3721 9.11125C7.15589 9.11125 4.33822 11.7794 4.33822 14.9999H4.73822C4.73822 12.0128 7.36406 9.51125 10.3721 9.51125V9.11125ZM15.3053 12.359C14.4349 10.4222 12.6072 9.11125 10.3721 9.11125V9.51125C12.4379 9.51125 14.1296 10.7187 14.9404 12.523L15.3053 12.359ZM13.6141 12.641H15.1229V12.241H13.6141V12.641ZM10.3726 10.8665C11.679 10.8665 12.779 11.5154 13.4461 12.5494L13.7822 12.3326C13.045 11.1899 11.8212 10.4665 10.3726 10.4665V10.8665ZM6.06242 15.0007C6.06242 12.787 8.07257 10.8665 10.3726 10.8665V10.4665C7.86825 10.4665 5.66242 12.5499 5.66242 15.0007H6.06242ZM10.0981 19.1348C7.87356 19.1348 6.06242 17.2883 6.06242 15.0007H5.66242C5.66242 17.5005 7.64403 19.5348 10.0981 19.5348V19.1348ZM13.5333 17.1715C12.8211 18.3515 11.5479 19.1348 10.0981 19.1348V19.5348C11.6967 19.5348 13.0957 18.6706 13.8758 17.3782L13.5333 17.1715ZM14.1779 18.0125C14.0856 17.7752 13.9855 17.4869 13.8944 17.2119L13.5147 17.3378C13.6066 17.6152 13.7092 17.911 13.8051 18.1575L14.1779 18.0125ZM14.4595 18.6635C14.3702 18.4748 14.2709 18.2513 14.1779 18.0125L13.8051 18.1575C13.9023 18.4071 14.0056 18.6394 14.0979 18.8346L14.4595 18.6635ZM10.0975 20.8885C11.826 20.8885 13.3758 20.1098 14.4306 18.8792L14.1269 18.6189C13.1437 19.766 11.7026 20.4885 10.0975 20.4885V20.8885ZM14.5338 15.0007C14.5338 14.8287 14.5258 14.6594 14.5103 14.4932L14.1121 14.5304C14.1264 14.6841 14.1338 14.841 14.1338 15.0007H14.5338ZM14.5338 15.0073L14.5338 15.0008L14.1338 15.0005L14.1338 15.007L14.5338 15.0073ZM14.5642 15.4689C14.5457 15.274 14.5374 15.1093 14.5336 15.0002L14.1339 15.014C14.1379 15.1293 14.1466 15.3021 14.1659 15.5065L14.5642 15.4689ZM10.1586 15.6877H14.365V15.2877H10.1586V15.6877ZM9.76292 16.0833C9.76292 15.8648 9.94006 15.6877 10.1586 15.6877V15.2877C9.71914 15.2877 9.36292 15.6439 9.36292 16.0833H9.76292ZM10.1586 16.479C9.94006 16.479 9.76292 16.3018 9.76292 16.0833H9.36292C9.36292 16.5228 9.71914 16.879 10.1586 16.879V16.479ZM19.7192 16.479H10.1586V16.879H19.7192V16.479ZM20.1148 16.0833C20.1148 16.3018 19.9377 16.479 19.7192 16.479V16.879C20.1586 16.879 20.5148 16.5228 20.5148 16.0833H20.1148ZM19.7192 15.6877C19.9377 15.6877 20.1148 15.8648 20.1148 16.0833H20.5148C20.5148 15.6439 20.1586 15.2877 19.7192 15.2877V15.6877ZM15.6934 15.6877H19.7192V15.2877H15.6934V15.6877ZM15.467 15.0009C15.467 15.1727 15.4763 15.3424 15.4946 15.5094L15.8922 15.466C15.8755 15.3134 15.867 15.1582 15.867 15.0009H15.467ZM15.4679 14.9091C15.4673 14.9396 15.467 14.9702 15.467 15.0009H15.867C15.867 14.9728 15.8672 14.9448 15.8678 14.9169L15.4679 14.9091ZM15.8093 15.0545L15.8132 15.0504L15.5225 14.7756L15.5186 14.7797L15.8093 15.0545ZM15.4435 14.5291C15.4541 14.6505 15.4592 14.7485 15.4616 14.8156C15.4629 14.8492 15.4634 14.875 15.4637 14.8921C15.4638 14.9006 15.4639 14.907 15.4639 14.9111C15.4639 14.9131 15.4639 14.9146 15.4639 14.9155C15.4639 14.9159 15.4639 14.9162 15.4639 14.9164C15.4639 14.9164 15.4639 14.9165 15.4639 14.9165C15.4639 14.9165 15.4639 14.9165 15.4639 14.9164C15.4639 14.9164 15.4639 14.9164 15.4639 14.9164C15.4639 14.9164 15.4639 14.9164 15.4639 14.9164C15.4639 14.9164 15.4639 14.9164 15.6639 14.9171C15.8639 14.9179 15.8639 14.9179 15.8639 14.9179C15.8639 14.9178 15.8639 14.9178 15.8639 14.9178C15.8639 14.9178 15.8639 14.9178 15.8639 14.9177C15.8639 14.9177 15.8639 14.9176 15.8639 14.9175C15.8639 14.9174 15.8639 14.9172 15.8639 14.917C15.8639 14.9165 15.8639 14.9159 15.8639 14.9152C15.8639 14.9136 15.8639 14.9115 15.8639 14.9089C15.8639 14.9035 15.8638 14.8958 15.8637 14.8859C15.8634 14.8661 15.8627 14.8375 15.8614 14.801C15.8587 14.728 15.8532 14.6233 15.842 14.4945L15.4435 14.5291ZM19.7192 14.3118H15.6428V14.7118H19.7192V14.3118ZM20.1148 13.9161C20.1148 14.1346 19.9377 14.3118 19.7192 14.3118V14.7118C20.1586 14.7118 20.5148 14.3555 20.5148 13.9161H20.1148ZM19.7192 13.5205C19.9377 13.5205 20.1148 13.6976 20.1148 13.9161H20.5148C20.5148 13.4767 20.1586 13.1205 19.7192 13.1205V13.5205ZM10.1585 13.5205H19.7192V13.1205H10.1585V13.5205ZM9.7629 13.9161C9.7629 13.6976 9.94004 13.5205 10.1585 13.5205V13.1205C9.71912 13.1205 9.3629 13.4767 9.3629 13.9161H9.7629ZM10.1585 14.3118C9.94004 14.3118 9.7629 14.1346 9.7629 13.9161H9.3629C9.3629 14.3555 9.71912 14.7118 10.1585 14.7118V14.3118ZM14.3112 14.3118H10.1585V14.7118H14.3112V14.3118ZM14.7717 17.648C14.8859 17.8794 14.9958 18.0765 15.0724 18.2084L15.4183 18.0075C15.3449 17.8812 15.2396 17.6923 15.1304 17.4709L14.7717 17.648ZM16.4834 17.3595H14.951V17.7595H16.4834V17.3595ZM19.9026 19.1351C18.567 19.1351 17.3814 18.4704 16.646 17.443L16.3208 17.6759C17.1267 18.8017 18.4302 19.5351 19.9026 19.5351V19.1351ZM23.9383 15.0009C23.9383 17.2885 22.1272 19.1351 19.9026 19.1351V19.5351C22.3567 19.5351 24.3383 17.5007 24.3383 15.0009H23.9383ZM19.9026 10.8667C22.1272 10.8667 23.9383 12.7133 23.9383 15.0009H24.3383C24.3383 12.5011 22.3567 10.4667 19.9026 10.4667V10.8667ZM16.5633 12.6788C17.2905 11.5835 18.5157 10.8667 19.9026 10.8667V10.4667C18.3735 10.4667 17.0268 11.2576 16.23 12.4575L16.5633 12.6788ZM16.1166 12.3046C16.148 12.4059 16.1766 12.5105 16.2024 12.6158L16.5909 12.5205C16.5634 12.4087 16.5328 12.2962 16.4986 12.186L16.1166 12.3046ZM15.656 11.2164C15.7984 11.4893 15.9882 11.8906 16.1166 12.3046L16.4986 12.186C16.3602 11.7397 16.1584 11.3146 16.0107 11.0315L15.656 11.2164ZM19.9024 9.11147C18.2364 9.11147 16.7362 9.83495 15.6855 10.9893L15.9813 11.2586C16.9605 10.1828 18.3552 9.51147 19.9024 9.51147V9.11147ZM25.6617 15.0001C25.6617 11.7522 23.0875 9.11147 19.9024 9.11147V9.51147C22.858 9.51147 25.2617 11.9644 25.2617 15.0001H25.6617ZM19.9024 20.8887C23.0875 20.8887 25.6617 18.2479 25.6617 15.0001H25.2617C25.2617 18.0357 22.858 20.4887 19.9024 20.4887V20.8887ZM15.0768 18.2156C16.1036 19.8234 17.8804 20.8887 19.9024 20.8887V20.4887C18.0253 20.4887 16.3719 19.5003 15.4139 18.0003L15.0768 18.2156Z" fill="white"/>
</g>
<defs>
<clipPath id="clip0_1_333">
<rect width="111" height="30" fill="white"/>
</clipPath>
</defs>
</svg>
